# xmcd
#
# Track frame offsets:
#	150
#	13569
#	30554
#	48277
#	60609
#	74933
#	88895
#	103623
#	116094
#	129246
#	146105
#	160359
#	184104
#
# Disc length: 2699 seconds
#
# Revision: 0
# Processed by: cddbd v1.4PL0 Copyright (c) Steve Scherf et al.
# Submitted via: dBpowerAMP V4.0
#
DISCID=bb0a890d
DTITLE=Billy Keeble - Keeping It Country
DYEAR=1900
DGENRE=Country
TTITLE0=Guess Who Doesn't Love Me Anymore
TTITLE1=After You Have Gone
TTITLE2=You Can't Take It With You
TTITLE3=No Good Good-Byes
TTITLE4=You Don't Care What Happens To Me
TTITLE5=Five Dollar Whiskey
TTITLE6=If I Had One Wish To Burn
TTITLE7=What A Heartache
TTITLE8=In Case You Change Your Mind
TTITLE9=Falling Back In Love
TTITLE10=Heavy Construction
TTITLE11=Jukebox Hero (w. Curt Ryle)
TTITLE12=DATA
EXTD=
EXTT0=
EXTT1=
EXTT2=
EXTT3=
EXTT4=
EXTT5=
EXTT6=
EXTT7=
EXTT8=
EXTT9=
EXTT10=
EXTT11=
EXTT12=
PLAYORDER=
